<svg width="33" height="32" viewBox="0 0 33 32" fill="none" xmlns="http://www.w3.org/2000/svg">
<path d="M20.5 20H30.5V22H20.5V20ZM20.5 24H30.5V26H20.5V24ZM20.5 28H30.5V30H20.5V28ZM16.5 20C15.9713 20.0123 15.4457 19.9173 14.9548 19.7206C14.4639 19.524 14.0181 19.2298 13.6442 18.8559C13.2702 18.4819 12.9761 18.0361 12.7794 17.5452C12.5827 17.0543 12.4877 16.5287 12.5 16C12.4877 15.4713 12.5827 14.9457 12.7794 14.4548C12.9761 13.9639 13.2702 13.5181 13.6442 13.1442C14.0181 12.7702 14.4639 12.4761 14.9548 12.2794C15.4457 12.0827 15.9713 11.9877 16.5 12C17.0287 11.9877 17.5543 12.0827 18.0452 12.2794C18.5361 12.4761 18.9819 12.7702 19.3559 13.1442C19.7298 13.5181 20.024 13.9639 20.2206 14.4548C20.4173 14.9457 20.5123 15.4713 20.5 16H22.5C22.5 14.8133 22.1481 13.6533 21.4888 12.6666C20.8295 11.6799 19.8925 10.9109 18.7961 10.4567C17.6997 10.0026 16.4933 9.88378 15.3295 10.1153C14.1656 10.3468 13.0965 10.9182 12.2574 11.7574C11.4182 12.5965 10.8468 13.6656 10.6153 14.8295C10.3838 15.9933 10.5026 17.1997 10.9567 18.2961C11.4109 19.3925 12.1799 20.3295 13.1666 20.9888C14.1533 21.6481 15.3133 22 16.5 22V20Z" fill="#2A2A2A"/>
<path d="M29.8052 11.044L27.4452 6.956C27.214 6.55528 26.8511 6.24708 26.4182 6.08389C25.9854 5.9207 25.5093 5.91261 25.0712 6.061L22.6372 6.885C22.2178 6.60248 21.7794 6.34921 21.3252 6.127L20.8212 3.607C20.7303 3.1538 20.4853 2.74604 20.1278 2.45307C19.7703 2.1601 19.3224 2 18.8602 2H14.1402C13.6778 2.00005 13.2297 2.16029 12.8722 2.45346C12.5147 2.74663 12.2698 3.15461 12.1792 3.608L11.6752 6.127C11.2159 6.34698 10.7725 6.59859 10.3482 6.88L7.92816 6.061C7.49027 5.91313 7.01467 5.92148 6.58224 6.08465C6.14981 6.24781 5.78723 6.55571 5.55616 6.956L3.19616 11.044C2.96498 11.4443 2.87959 11.9123 2.95452 12.3685C3.02945 12.8246 3.26007 13.2407 3.60716 13.546L5.53816 15.243C5.52116 15.495 5.50016 15.745 5.50016 16C5.50016 16.258 5.5095 16.5133 5.52816 16.766L3.60816 18.454C3.26075 18.759 3.02974 19.175 2.95444 19.6312C2.87914 20.0873 2.96421 20.5555 3.19516 20.956L5.55516 25.044C5.78631 25.4447 6.14922 25.7529 6.58208 25.9161C7.01495 26.0793 7.491 26.0874 7.92916 25.939L10.3632 25.115C10.7825 25.3979 11.2209 25.6515 11.6752 25.874L12.1782 28.392C12.2688 28.8456 12.5139 29.2537 12.8716 29.5469C13.2293 29.84 13.6776 30.0002 14.1402 30H16.5002V28H14.1402L13.4302 24.45C12.448 24.0851 11.5363 23.5532 10.7352 22.878L7.28816 24.044L4.92816 19.956L7.65316 17.561C7.46618 16.5269 7.46381 15.4679 7.64616 14.433L4.92816 12.043L7.28816 7.956L10.7152 9.116C11.5216 8.43922 12.4405 7.90919 13.4302 7.55L14.1402 4H18.8602L19.5702 7.55C20.5523 7.91495 21.464 8.44676 22.2652 9.122L25.7122 7.956L28.0722 12.044L25.2742 14.496L26.5922 16L29.3922 13.546C29.7396 13.241 29.9706 12.825 30.0459 12.3688C30.1212 11.9127 30.0361 11.4445 29.8052 11.044Z" fill="#2A2A2A"/>
</svg>
